<svg xmlns="http://www.w3.org/2000/svg" xmlns:xlink="http://www.w3.org/1999/xlink" width="500" zoomAndPan="magnify" viewBox="0 0 375 374.999991" height="500" preserveAspectRatio="xMidYMid meet" version="1.0"><defs><g/><clipPath id="aa4477dcb2"><path d="M 152 108.3125 L 223 108.3125 L 223 136 L 152 136 Z M 152 108.3125 " clip-rule="nonzero"/></clipPath><clipPath id="8aa2044366"><path d="M 140.296875 137 L 234.796875 137 L 234.796875 190.8125 L 140.296875 190.8125 Z M 140.296875 137 " clip-rule="nonzero"/></clipPath></defs><g clip-path="url(#aa4477dcb2)"><path fill="#e99ca9" d="M 156.242188 135.378906 L 156.242188 124.390625 C 156.242188 118.472656 161.058594 113.65625 166.976562 113.65625 L 172.667969 113.65625 C 173.171875 115.289062 174.679688 116.480469 176.480469 116.480469 L 198.523438 116.480469 C 200.320312 116.480469 201.828125 115.289062 202.335938 113.65625 L 208.023438 113.65625 C 213.945312 113.65625 218.761719 118.472656 218.761719 124.390625 L 218.761719 135.378906 L 222.339844 135.378906 L 222.339844 124.390625 C 222.339844 116.5 215.917969 110.078125 208.023438 110.078125 L 201.730469 110.078125 C 200.996094 109.101562 199.839844 108.457031 198.519531 108.457031 L 176.476562 108.457031 C 175.160156 108.457031 174 109.101562 173.269531 110.082031 L 166.976562 110.082031 C 159.085938 110.082031 152.664062 116.503906 152.664062 124.394531 L 152.664062 135.382812 L 156.242188 135.382812 Z M 156.242188 135.378906 " fill-opacity="1" fill-rule="nonzero"/></g><g clip-path="url(#8aa2044366)"><path fill="#e99ca9" d="M 230.21875 137.632812 L 144.78125 137.632812 C 142.304688 137.632812 140.296875 139.640625 140.296875 142.117188 C 140.296875 144.59375 142.304688 146.601562 144.78125 146.601562 L 145.957031 146.601562 C 147.203125 153.636719 151.035156 174.984375 152.8125 181.582031 C 154.941406 189.449219 157.40625 190.851562 163.289062 190.851562 L 209.976562 190.84375 L 211.710938 190.851562 C 217.589844 190.851562 220.058594 189.449219 222.183594 181.582031 C 223.964844 174.988281 227.796875 153.636719 229.042969 146.601562 L 230.21875 146.601562 C 232.695312 146.601562 234.703125 144.59375 234.703125 142.117188 C 234.703125 139.640625 232.695312 137.632812 230.21875 137.632812 Z M 220.542969 139.96875 C 221.730469 139.96875 222.691406 140.929688 222.691406 142.117188 C 222.691406 143.304688 221.734375 144.269531 220.542969 144.269531 C 219.355469 144.269531 218.398438 143.304688 218.398438 142.117188 C 218.398438 140.929688 219.359375 139.96875 220.542969 139.96875 Z M 189.289062 146.597656 L 209.4375 146.597656 L 207.464844 156.695312 L 189.289062 156.695312 Z M 154.453125 139.96875 C 155.640625 139.96875 156.601562 140.929688 156.601562 142.117188 C 156.601562 143.304688 155.644531 144.269531 154.453125 144.269531 C 153.265625 144.269531 152.308594 143.304688 152.308594 142.117188 C 152.308594 140.929688 153.265625 139.96875 154.453125 139.96875 Z M 151.410156 146.597656 L 161.914062 146.597656 L 163.886719 156.695312 L 153.234375 156.695312 C 152.496094 152.671875 151.84375 149.042969 151.410156 146.597656 Z M 156.09375 171.628906 C 155.390625 168.128906 154.621094 164.140625 153.898438 160.269531 L 164.582031 160.269531 L 166.800781 171.628906 Z M 165.023438 185.472656 L 163.289062 185.480469 C 159.722656 185.480469 159.429688 185.480469 157.996094 180.179688 C 157.675781 178.992188 157.28125 177.257812 156.839844 175.203125 L 167.496094 175.203125 L 169.507812 185.46875 L 165.023438 185.46875 Z M 185.710938 185.476562 L 173.152344 185.472656 L 171.148438 175.207031 L 185.710938 175.207031 Z M 185.710938 171.628906 L 170.449219 171.628906 L 168.230469 160.269531 L 185.710938 160.269531 Z M 185.710938 156.695312 L 167.53125 156.695312 L 165.558594 146.597656 L 185.710938 146.597656 Z M 201.847656 185.480469 L 189.289062 185.476562 L 189.289062 175.207031 L 203.851562 175.207031 Z M 189.289062 171.628906 L 189.289062 160.269531 L 206.769531 160.269531 L 204.550781 171.628906 Z M 217 180.179688 C 215.574219 185.46875 215.277344 185.480469 211.734375 185.480469 C 211.726562 185.480469 211.722656 185.480469 211.710938 185.480469 L 205.492188 185.480469 L 207.5 175.210938 L 218.15625 175.210938 C 217.71875 177.257812 217.320312 178.992188 217 180.179688 Z M 218.90625 171.628906 L 208.199219 171.628906 L 210.417969 160.269531 L 221.097656 160.269531 C 220.375 164.140625 219.609375 168.132812 218.90625 171.628906 Z M 221.761719 156.695312 L 211.117188 156.695312 L 213.085938 146.597656 L 223.59375 146.597656 C 223.15625 149.042969 222.503906 152.671875 221.761719 156.695312 Z M 221.761719 156.695312 " fill-opacity="1" fill-rule="nonzero"/></g><g fill="#be656e" fill-opacity="1"><g transform="translate(3.996948, 261.560338)"><g><path d="M 1.78125 -10.390625 L 1.78125 0 L 8.484375 0 L 8.484375 -0.8125 L 3.125 -0.8125 L 3.125 -5.171875 L 7.734375 -5.171875 L 7.734375 -5.84375 L 3.125 -5.84375 L 3.125 -9.578125 L 8.484375 -9.578125 L 8.484375 -10.390625 Z M 1.78125 -10.390625 "/></g></g></g><g fill="#be656e" fill-opacity="1"><g transform="translate(14.353289, 261.560338)"><g><path d="M 2.796875 -10.390625 L 1.78125 -10.390625 L 1.78125 0 L 2.4375 0 L 2.4375 -8.46875 L 2.5 -8.46875 L 7.078125 0.171875 L 7.34375 0.171875 L 12.03125 -8.421875 L 12.09375 -8.421875 L 12.09375 0 L 13.453125 0 L 13.453125 -10.390625 L 12.421875 -10.390625 L 7.609375 -1.46875 L 7.5625 -1.46875 Z M 2.796875 -10.390625 "/></g></g></g><g fill="#be656e" fill-opacity="1"><g transform="translate(30.99999, 261.560338)"><g><path d="M 3.125 -4.328125 C 3.382812 -4.265625 3.660156 -4.207031 3.953125 -4.15625 C 4.253906 -4.113281 4.582031 -4.09375 4.9375 -4.09375 C 5.539062 -4.09375 6.078125 -4.175781 6.546875 -4.34375 C 7.015625 -4.507812 7.398438 -4.738281 7.703125 -5.03125 C 8.015625 -5.332031 8.25 -5.671875 8.40625 -6.046875 C 8.570312 -6.429688 8.65625 -6.835938 8.65625 -7.265625 C 8.65625 -7.679688 8.582031 -8.082031 8.4375 -8.46875 C 8.300781 -8.851562 8.09375 -9.1875 7.8125 -9.46875 C 7.53125 -9.75 7.175781 -9.972656 6.75 -10.140625 C 6.320312 -10.304688 5.820312 -10.390625 5.25 -10.390625 L 1.78125 -10.390625 L 1.78125 0 L 3.125 0 Z M 3.125 -9.734375 L 4.6875 -9.734375 C 5.101562 -9.734375 5.46875 -9.660156 5.78125 -9.515625 C 6.101562 -9.367188 6.367188 -9.171875 6.578125 -8.921875 C 6.785156 -8.679688 6.941406 -8.410156 7.046875 -8.109375 C 7.148438 -7.804688 7.203125 -7.507812 7.203125 -7.21875 C 7.203125 -6.925781 7.15625 -6.632812 7.0625 -6.34375 C 6.96875 -6.050781 6.816406 -5.785156 6.609375 -5.546875 C 6.398438 -5.304688 6.132812 -5.113281 5.8125 -4.96875 C 5.5 -4.820312 5.117188 -4.75 4.671875 -4.75 C 4.367188 -4.75 4.085938 -4.757812 3.828125 -4.78125 C 3.566406 -4.8125 3.332031 -4.863281 3.125 -4.9375 Z M 3.125 -9.734375 "/></g></g></g><g fill="#be656e" fill-opacity="1"><g transform="translate(41.519523, 261.560338)"><g><path d="M 0.734375 -5.1875 C 0.734375 -4.632812 0.835938 -4.046875 1.046875 -3.421875 C 1.265625 -2.796875 1.601562 -2.210938 2.0625 -1.671875 C 2.519531 -1.140625 3.097656 -0.695312 3.796875 -0.34375 C 4.503906 0 5.347656 0.171875 6.328125 0.171875 C 6.984375 0.171875 7.582031 0.09375 8.125 -0.0625 C 8.664062 -0.226562 9.148438 -0.445312 9.578125 -0.71875 C 10.015625 -1 10.390625 -1.316406 10.703125 -1.671875 C 11.015625 -2.035156 11.269531 -2.414062 11.46875 -2.8125 C 11.675781 -3.21875 11.832031 -3.625 11.9375 -4.03125 C 12.039062 -4.4375 12.09375 -4.820312 12.09375 -5.1875 C 12.09375 -5.75 11.976562 -6.34375 11.75 -6.96875 C 11.53125 -7.59375 11.179688 -8.171875 10.703125 -8.703125 C 10.222656 -9.242188 9.617188 -9.6875 8.890625 -10.03125 C 8.171875 -10.382812 7.316406 -10.5625 6.328125 -10.5625 C 5.347656 -10.5625 4.503906 -10.390625 3.796875 -10.046875 C 3.097656 -9.703125 2.519531 -9.265625 2.0625 -8.734375 C 1.601562 -8.203125 1.265625 -7.617188 1.046875 -6.984375 C 0.835938 -6.359375 0.734375 -5.757812 0.734375 -5.1875 Z M 2.203125 -5.1875 C 2.203125 -5.882812 2.304688 -6.519531 2.515625 -7.09375 C 2.722656 -7.675781 3.015625 -8.175781 3.390625 -8.59375 C 3.765625 -9.007812 4.203125 -9.332031 4.703125 -9.5625 C 5.210938 -9.800781 5.765625 -9.921875 6.359375 -9.921875 C 6.941406 -9.921875 7.488281 -9.800781 8 -9.5625 C 8.519531 -9.332031 8.972656 -9.007812 9.359375 -8.59375 C 9.753906 -8.175781 10.066406 -7.675781 10.296875 -7.09375 C 10.523438 -6.519531 10.640625 -5.882812 10.640625 -5.1875 C 10.640625 -4.5 10.523438 -3.863281 10.296875 -3.28125 C 10.066406 -2.707031 9.753906 -2.210938 9.359375 -1.796875 C 8.972656 -1.378906 8.519531 -1.050781 8 -0.8125 C 7.488281 -0.582031 6.941406 -0.46875 6.359375 -0.46875 C 5.765625 -0.46875 5.210938 -0.582031 4.703125 -0.8125 C 4.203125 -1.050781 3.765625 -1.378906 3.390625 -1.796875 C 3.015625 -2.210938 2.722656 -2.707031 2.515625 -3.28125 C 2.304688 -3.863281 2.203125 -4.5 2.203125 -5.1875 Z M 2.203125 -5.1875 "/></g></g></g><g fill="#be656e" fill-opacity="1"><g transform="translate(55.777659, 261.560338)"><g><path d="M 0.4375 -10.390625 L 4.125 0 L 5.015625 0 L 7.859375 -8.125 L 7.921875 -8.125 L 10.671875 0 L 11.546875 0 L 15.234375 -10.390625 L 14.546875 -10.390625 L 11.46875 -1.71875 L 11.421875 -1.71875 L 8.515625 -10.390625 L 7.875 -10.390625 L 4.921875 -1.765625 L 4.875 -1.765625 L 1.8125 -10.390625 Z M 0.4375 -10.390625 "/></g></g></g><g fill="#be656e" fill-opacity="1"><g transform="translate(72.869429, 261.560338)"><g><path d="M 1.78125 -10.390625 L 1.78125 0 L 8.484375 0 L 8.484375 -0.8125 L 3.125 -0.8125 L 3.125 -5.171875 L 7.734375 -5.171875 L 7.734375 -5.84375 L 3.125 -5.84375 L 3.125 -9.578125 L 8.484375 -9.578125 L 8.484375 -10.390625 Z M 1.78125 -10.390625 "/></g></g></g><g fill="#be656e" fill-opacity="1"><g transform="translate(83.22577, 261.560338)"><g><path d="M 1.78125 -10.390625 L 1.78125 0 L 3.125 0 L 3.125 -4.59375 L 3.78125 -4.59375 C 4.0625 -4.59375 4.289062 -4.566406 4.46875 -4.515625 C 4.65625 -4.460938 4.820312 -4.375 4.96875 -4.25 C 5.113281 -4.132812 5.25 -3.984375 5.375 -3.796875 C 5.507812 -3.609375 5.664062 -3.378906 5.84375 -3.109375 L 7.015625 -1.359375 C 7.171875 -1.140625 7.316406 -0.929688 7.453125 -0.734375 C 7.597656 -0.546875 7.753906 -0.382812 7.921875 -0.25 C 8.085938 -0.125 8.273438 -0.0234375 8.484375 0.046875 C 8.703125 0.128906 8.960938 0.171875 9.265625 0.171875 C 9.484375 0.171875 9.660156 0.160156 9.796875 0.140625 C 9.929688 0.128906 10.070312 0.0820312 10.21875 0 L 10.21875 -0.546875 C 10.164062 -0.535156 10.113281 -0.523438 10.0625 -0.515625 C 10.007812 -0.515625 9.960938 -0.515625 9.921875 -0.515625 C 9.710938 -0.515625 9.523438 -0.546875 9.359375 -0.609375 C 9.203125 -0.671875 9.054688 -0.753906 8.921875 -0.859375 C 8.785156 -0.972656 8.648438 -1.113281 8.515625 -1.28125 C 8.390625 -1.445312 8.257812 -1.632812 8.125 -1.84375 C 7.707031 -2.445312 7.382812 -2.925781 7.15625 -3.28125 C 6.925781 -3.644531 6.742188 -3.925781 6.609375 -4.125 C 6.472656 -4.320312 6.363281 -4.460938 6.28125 -4.546875 C 6.195312 -4.640625 6.097656 -4.71875 5.984375 -4.78125 L 5.828125 -4.859375 L 5.828125 -4.90625 C 6.304688 -4.9375 6.710938 -5.039062 7.046875 -5.21875 C 7.390625 -5.394531 7.671875 -5.617188 7.890625 -5.890625 C 8.109375 -6.160156 8.265625 -6.453125 8.359375 -6.765625 C 8.460938 -7.078125 8.515625 -7.378906 8.515625 -7.671875 C 8.515625 -7.941406 8.460938 -8.234375 8.359375 -8.546875 C 8.253906 -8.867188 8.078125 -9.164062 7.828125 -9.4375 C 7.578125 -9.707031 7.234375 -9.929688 6.796875 -10.109375 C 6.359375 -10.296875 5.8125 -10.390625 5.15625 -10.390625 Z M 3.125 -9.734375 L 4.625 -9.734375 C 5 -9.734375 5.335938 -9.675781 5.640625 -9.5625 C 5.941406 -9.457031 6.203125 -9.304688 6.421875 -9.109375 C 6.640625 -8.921875 6.804688 -8.691406 6.921875 -8.421875 C 7.035156 -8.160156 7.09375 -7.875 7.09375 -7.5625 C 7.09375 -7.289062 7.039062 -7.019531 6.9375 -6.75 C 6.832031 -6.476562 6.675781 -6.226562 6.46875 -6 C 6.257812 -5.78125 6.003906 -5.597656 5.703125 -5.453125 C 5.398438 -5.316406 5.050781 -5.25 4.65625 -5.25 L 3.125 -5.25 Z M 3.125 -9.734375 "/></g></g></g><g fill="#be656e" fill-opacity="1"><g transform="translate(95.303052, 261.560338)"><g><path d="M 2.375 -10.390625 L 2.375 0 L 3.71875 0 L 3.71875 -10.390625 Z M 2.375 -10.390625 "/></g></g></g><g fill="#be656e" fill-opacity="1"><g transform="translate(102.825758, 261.560338)"><g><path d="M 10.15625 -10.390625 L 10.15625 -2.453125 L 10.09375 -2.453125 L 1.859375 -10.5625 L 1.78125 -10.5625 L 1.78125 0 L 2.46875 0 L 2.46875 -7.9375 L 2.515625 -7.9375 L 10.765625 0.171875 L 10.828125 0.171875 L 10.828125 -10.390625 Z M 10.15625 -10.390625 "/></g></g></g><g fill="#be656e" fill-opacity="1"><g transform="translate(116.861367, 261.560338)"><g><path d="M 11.234375 -4.625 L 8.296875 -4.625 L 8.296875 -4.015625 L 9.953125 -4.015625 L 9.953125 -1.328125 C 9.515625 -1.046875 9.0625 -0.832031 8.59375 -0.6875 C 8.125 -0.550781 7.59375 -0.484375 7 -0.484375 C 6.21875 -0.484375 5.535156 -0.601562 4.953125 -0.84375 C 4.367188 -1.082031 3.882812 -1.410156 3.5 -1.828125 C 3.113281 -2.253906 2.820312 -2.753906 2.625 -3.328125 C 2.4375 -3.910156 2.34375 -4.546875 2.34375 -5.234375 C 2.34375 -5.921875 2.429688 -6.550781 2.609375 -7.125 C 2.796875 -7.695312 3.070312 -8.191406 3.4375 -8.609375 C 3.8125 -9.023438 4.257812 -9.347656 4.78125 -9.578125 C 5.3125 -9.804688 5.929688 -9.921875 6.640625 -9.921875 C 7.097656 -9.921875 7.53125 -9.867188 7.9375 -9.765625 C 8.34375 -9.671875 8.703125 -9.539062 9.015625 -9.375 C 9.335938 -9.21875 9.597656 -9.035156 9.796875 -8.828125 C 10.003906 -8.628906 10.140625 -8.425781 10.203125 -8.21875 L 11.265625 -8.21875 C 11.171875 -8.4375 11.019531 -8.679688 10.8125 -8.953125 C 10.601562 -9.222656 10.3125 -9.476562 9.9375 -9.71875 C 9.570312 -9.957031 9.117188 -10.15625 8.578125 -10.3125 C 8.046875 -10.476562 7.410156 -10.5625 6.671875 -10.5625 C 5.835938 -10.5625 5.066406 -10.441406 4.359375 -10.203125 C 3.648438 -9.972656 3.035156 -9.632812 2.515625 -9.1875 C 2.003906 -8.738281 1.601562 -8.191406 1.3125 -7.546875 C 1.03125 -6.898438 0.890625 -6.164062 0.890625 -5.34375 C 0.890625 -4.644531 1 -3.960938 1.21875 -3.296875 C 1.445312 -2.640625 1.789062 -2.050781 2.25 -1.53125 C 2.707031 -1.007812 3.289062 -0.59375 4 -0.28125 C 4.71875 0.0195312 5.570312 0.171875 6.5625 0.171875 C 7.300781 0.171875 7.957031 0.09375 8.53125 -0.0625 C 9.101562 -0.226562 9.578125 -0.410156 9.953125 -0.609375 L 9.953125 0 L 11.234375 0 Z M 11.234375 -4.625 "/></g></g></g><g fill="#be656e" fill-opacity="1"><g transform="translate(130.415857, 261.560338)"><g/></g></g><g fill="#be656e" fill-opacity="1"><g transform="translate(137.033581, 261.560338)"><g/></g></g><g fill="#be656e" fill-opacity="1"><g transform="translate(143.651455, 261.560338)"><g><path d="M 0.546875 -2.625 C 0.566406 -2.195312 0.675781 -1.8125 0.875 -1.46875 C 1.082031 -1.125 1.359375 -0.828125 1.703125 -0.578125 C 2.054688 -0.335938 2.472656 -0.148438 2.953125 -0.015625 C 3.429688 0.109375 3.953125 0.171875 4.515625 0.171875 C 5.085938 0.171875 5.601562 0.101562 6.0625 -0.03125 C 6.519531 -0.164062 6.910156 -0.363281 7.234375 -0.625 C 7.566406 -0.882812 7.820312 -1.195312 8 -1.5625 C 8.175781 -1.925781 8.265625 -2.332031 8.265625 -2.78125 C 8.265625 -3.394531 8.109375 -3.894531 7.796875 -4.28125 C 7.492188 -4.675781 7.113281 -5.003906 6.65625 -5.265625 C 6.195312 -5.523438 5.695312 -5.742188 5.15625 -5.921875 C 4.613281 -6.097656 4.113281 -6.285156 3.65625 -6.484375 C 3.195312 -6.679688 2.8125 -6.910156 2.5 -7.171875 C 2.195312 -7.429688 2.046875 -7.769531 2.046875 -8.1875 C 2.046875 -8.425781 2.097656 -8.648438 2.203125 -8.859375 C 2.304688 -9.066406 2.457031 -9.25 2.65625 -9.40625 C 2.863281 -9.5625 3.113281 -9.6875 3.40625 -9.78125 C 3.707031 -9.875 4.050781 -9.921875 4.4375 -9.921875 C 5.082031 -9.921875 5.628906 -9.78125 6.078125 -9.5 C 6.523438 -9.226562 6.789062 -8.800781 6.875 -8.21875 L 7.875 -8.21875 C 7.820312 -8.582031 7.691406 -8.910156 7.484375 -9.203125 C 7.273438 -9.492188 7.007812 -9.738281 6.6875 -9.9375 C 6.375 -10.144531 6.015625 -10.300781 5.609375 -10.40625 C 5.210938 -10.507812 4.796875 -10.5625 4.359375 -10.5625 C 3.910156 -10.5625 3.476562 -10.503906 3.0625 -10.390625 C 2.65625 -10.273438 2.296875 -10.101562 1.984375 -9.875 C 1.671875 -9.644531 1.421875 -9.351562 1.234375 -9 C 1.054688 -8.65625 0.96875 -8.265625 0.96875 -7.828125 C 0.96875 -7.242188 1.113281 -6.769531 1.40625 -6.40625 C 1.707031 -6.050781 2.082031 -5.753906 2.53125 -5.515625 C 2.976562 -5.285156 3.460938 -5.082031 3.984375 -4.90625 C 4.515625 -4.738281 5.003906 -4.546875 5.453125 -4.328125 C 5.898438 -4.117188 6.269531 -3.863281 6.5625 -3.5625 C 6.863281 -3.257812 7.015625 -2.847656 7.015625 -2.328125 C 7.015625 -1.679688 6.78125 -1.207031 6.3125 -0.90625 C 5.84375 -0.613281 5.21875 -0.46875 4.4375 -0.46875 C 3.8125 -0.46875 3.3125 -0.550781 2.9375 -0.71875 C 2.5625 -0.882812 2.273438 -1.078125 2.078125 -1.296875 C 1.878906 -1.523438 1.742188 -1.757812 1.671875 -2 C 1.609375 -2.25 1.570312 -2.457031 1.5625 -2.625 Z M 0.546875 -2.625 "/></g></g></g><g fill="#be656e" fill-opacity="1"><g transform="translate(154.34901, 261.560338)"><g><path d="M 2.796875 -10.390625 L 1.78125 -10.390625 L 1.78125 0 L 2.4375 0 L 2.4375 -8.46875 L 2.5 -8.46875 L 7.078125 0.171875 L 7.34375 0.171875 L 12.03125 -8.421875 L 12.09375 -8.421875 L 12.09375 0 L 13.453125 0 L 13.453125 -10.390625 L 12.421875 -10.390625 L 7.609375 -1.46875 L 7.5625 -1.46875 Z M 2.796875 -10.390625 "/></g></g></g><g fill="#be656e" fill-opacity="1"><g transform="translate(170.995711, 261.560338)"><g><path d="M 7.5625 -3.0625 L 8.984375 0 L 10.421875 0 L 5.578125 -10.390625 L 4.84375 -10.390625 L 0.4375 0 L 1.125 0 L 2.4375 -3.0625 Z M 7.25 -3.71875 L 2.71875 -3.71875 L 4.859375 -8.734375 L 4.90625 -8.734375 Z M 7.25 -3.71875 "/></g></g></g><g fill="#be656e" fill-opacity="1"><g transform="translate(183.280703, 261.560338)"><g><path d="M 1.78125 0 L 1.78125 -10.390625 L 3.125 -10.390625 L 3.125 -0.8125 L 8.484375 -0.8125 L 8.484375 0 Z M 1.78125 0 "/></g></g></g><g fill="#be656e" fill-opacity="1"><g transform="translate(193.637044, 261.560338)"><g><path d="M 1.78125 0 L 1.78125 -10.390625 L 3.125 -10.390625 L 3.125 -0.8125 L 8.484375 -0.8125 L 8.484375 0 Z M 1.78125 0 "/></g></g></g><g fill="#be656e" fill-opacity="1"><g transform="translate(203.993385, 261.560338)"><g/></g></g><g fill="#be656e" fill-opacity="1"><g transform="translate(210.611109, 261.560338)"><g><path d="M 1.78125 0 L 5.5 0 C 6.164062 0 6.722656 -0.0820312 7.171875 -0.25 C 7.628906 -0.425781 8 -0.648438 8.28125 -0.921875 C 8.5625 -1.203125 8.757812 -1.519531 8.875 -1.875 C 9 -2.226562 9.0625 -2.582031 9.0625 -2.9375 C 9.0625 -3.5 8.941406 -3.945312 8.703125 -4.28125 C 8.460938 -4.625 8.171875 -4.882812 7.828125 -5.0625 C 7.492188 -5.238281 7.148438 -5.351562 6.796875 -5.40625 C 6.441406 -5.46875 6.15625 -5.503906 5.9375 -5.515625 L 5.9375 -5.578125 C 6.28125 -5.578125 6.601562 -5.644531 6.90625 -5.78125 C 7.21875 -5.914062 7.488281 -6.085938 7.71875 -6.296875 C 7.957031 -6.515625 8.144531 -6.765625 8.28125 -7.046875 C 8.414062 -7.328125 8.484375 -7.625 8.484375 -7.9375 C 8.484375 -8.21875 8.425781 -8.5 8.3125 -8.78125 C 8.195312 -9.070312 8.015625 -9.335938 7.765625 -9.578125 C 7.523438 -9.816406 7.210938 -10.007812 6.828125 -10.15625 C 6.453125 -10.3125 6.003906 -10.390625 5.484375 -10.390625 L 1.78125 -10.390625 Z M 3.125 -0.65625 L 3.125 -5.1875 L 4.765625 -5.1875 C 5.242188 -5.1875 5.660156 -5.125 6.015625 -5 C 6.378906 -4.875 6.675781 -4.703125 6.90625 -4.484375 C 7.144531 -4.265625 7.316406 -4.007812 7.421875 -3.71875 C 7.535156 -3.4375 7.59375 -3.132812 7.59375 -2.8125 C 7.59375 -2.46875 7.53125 -2.160156 7.40625 -1.890625 C 7.289062 -1.628906 7.128906 -1.40625 6.921875 -1.21875 C 6.710938 -1.03125 6.46875 -0.890625 6.1875 -0.796875 C 5.90625 -0.703125 5.601562 -0.65625 5.28125 -0.65625 Z M 3.125 -5.84375 L 3.125 -9.734375 L 4.9375 -9.734375 C 5.320312 -9.734375 5.648438 -9.675781 5.921875 -9.5625 C 6.203125 -9.457031 6.425781 -9.316406 6.59375 -9.140625 C 6.769531 -8.960938 6.894531 -8.757812 6.96875 -8.53125 C 7.050781 -8.300781 7.09375 -8.078125 7.09375 -7.859375 C 7.09375 -7.566406 7.035156 -7.296875 6.921875 -7.046875 C 6.804688 -6.796875 6.644531 -6.582031 6.4375 -6.40625 C 6.238281 -6.226562 6.007812 -6.085938 5.75 -5.984375 C 5.488281 -5.890625 5.207031 -5.84375 4.90625 -5.84375 Z M 3.125 -5.84375 "/></g></g></g><g fill="#be656e" fill-opacity="1"><g transform="translate(221.842758, 261.560338)"><g><path d="M 1.1875 -10.390625 L 1.1875 -4 C 1.1875 -3.601562 1.222656 -3.15625 1.296875 -2.65625 C 1.378906 -2.164062 1.566406 -1.710938 1.859375 -1.296875 C 2.160156 -0.878906 2.601562 -0.53125 3.1875 -0.25 C 3.769531 0.03125 4.566406 0.171875 5.578125 0.171875 C 6.210938 0.171875 6.773438 0.0703125 7.265625 -0.125 C 7.753906 -0.320312 8.164062 -0.59375 8.5 -0.9375 C 8.832031 -1.28125 9.082031 -1.679688 9.25 -2.140625 C 9.414062 -2.597656 9.5 -3.09375 9.5 -3.625 L 9.5 -10.390625 L 8.84375 -10.390625 L 8.84375 -4.109375 C 8.84375 -3.890625 8.835938 -3.664062 8.828125 -3.4375 C 8.816406 -3.21875 8.785156 -3 8.734375 -2.78125 C 8.691406 -2.5625 8.617188 -2.34375 8.515625 -2.125 C 8.410156 -1.90625 8.257812 -1.6875 8.0625 -1.46875 C 7.707031 -1.082031 7.304688 -0.816406 6.859375 -0.671875 C 6.410156 -0.535156 5.945312 -0.46875 5.46875 -0.46875 C 5.050781 -0.46875 4.679688 -0.53125 4.359375 -0.65625 C 4.035156 -0.789062 3.726562 -0.988281 3.4375 -1.25 C 3.21875 -1.445312 3.046875 -1.644531 2.921875 -1.84375 C 2.804688 -2.039062 2.71875 -2.234375 2.65625 -2.421875 C 2.59375 -2.617188 2.554688 -2.816406 2.546875 -3.015625 C 2.535156 -3.210938 2.53125 -3.410156 2.53125 -3.609375 L 2.53125 -10.390625 Z M 1.1875 -10.390625 "/></g></g></g><g fill="#be656e" fill-opacity="1"><g transform="translate(233.949714, 261.560338)"><g><path d="M 0.546875 -2.625 C 0.566406 -2.195312 0.675781 -1.8125 0.875 -1.46875 C 1.082031 -1.125 1.359375 -0.828125 1.703125 -0.578125 C 2.054688 -0.335938 2.472656 -0.148438 2.953125 -0.015625 C 3.429688 0.109375 3.953125 0.171875 4.515625 0.171875 C 5.085938 0.171875 5.601562 0.101562 6.0625 -0.03125 C 6.519531 -0.164062 6.910156 -0.363281 7.234375 -0.625 C 7.566406 -0.882812 7.820312 -1.195312 8 -1.5625 C 8.175781 -1.925781 8.265625 -2.332031 8.265625 -2.78125 C 8.265625 -3.394531 8.109375 -3.894531 7.796875 -4.28125 C 7.492188 -4.675781 7.113281 -5.003906 6.65625 -5.265625 C 6.195312 -5.523438 5.695312 -5.742188 5.15625 -5.921875 C 4.613281 -6.097656 4.113281 -6.285156 3.65625 -6.484375 C 3.195312 -6.679688 2.8125 -6.910156 2.5 -7.171875 C 2.195312 -7.429688 2.046875 -7.769531 2.046875 -8.1875 C 2.046875 -8.425781 2.097656 -8.648438 2.203125 -8.859375 C 2.304688 -9.066406 2.457031 -9.25 2.65625 -9.40625 C 2.863281 -9.5625 3.113281 -9.6875 3.40625 -9.78125 C 3.707031 -9.875 4.050781 -9.921875 4.4375 -9.921875 C 5.082031 -9.921875 5.628906 -9.78125 6.078125 -9.5 C 6.523438 -9.226562 6.789062 -8.800781 6.875 -8.21875 L 7.875 -8.21875 C 7.820312 -8.582031 7.691406 -8.910156 7.484375 -9.203125 C 7.273438 -9.492188 7.007812 -9.738281 6.6875 -9.9375 C 6.375 -10.144531 6.015625 -10.300781 5.609375 -10.40625 C 5.210938 -10.507812 4.796875 -10.5625 4.359375 -10.5625 C 3.910156 -10.5625 3.476562 -10.503906 3.0625 -10.390625 C 2.65625 -10.273438 2.296875 -10.101562 1.984375 -9.875 C 1.671875 -9.644531 1.421875 -9.351562 1.234375 -9 C 1.054688 -8.65625 0.96875 -8.265625 0.96875 -7.828125 C 0.96875 -7.242188 1.113281 -6.769531 1.40625 -6.40625 C 1.707031 -6.050781 2.082031 -5.753906 2.53125 -5.515625 C 2.976562 -5.285156 3.460938 -5.082031 3.984375 -4.90625 C 4.515625 -4.738281 5.003906 -4.546875 5.453125 -4.328125 C 5.898438 -4.117188 6.269531 -3.863281 6.5625 -3.5625 C 6.863281 -3.257812 7.015625 -2.847656 7.015625 -2.328125 C 7.015625 -1.679688 6.78125 -1.207031 6.3125 -0.90625 C 5.84375 -0.613281 5.21875 -0.46875 4.4375 -0.46875 C 3.8125 -0.46875 3.3125 -0.550781 2.9375 -0.71875 C 2.5625 -0.882812 2.273438 -1.078125 2.078125 -1.296875 C 1.878906 -1.523438 1.742188 -1.757812 1.671875 -2 C 1.609375 -2.25 1.570312 -2.457031 1.5625 -2.625 Z M 0.546875 -2.625 "/></g></g></g><g fill="#be656e" fill-opacity="1"><g transform="translate(244.647269, 261.560338)"><g><path d="M 2.375 -10.390625 L 2.375 0 L 3.71875 0 L 3.71875 -10.390625 Z M 2.375 -10.390625 "/></g></g></g><g fill="#be656e" fill-opacity="1"><g transform="translate(252.169975, 261.560338)"><g><path d="M 10.15625 -10.390625 L 10.15625 -2.453125 L 10.09375 -2.453125 L 1.859375 -10.5625 L 1.78125 -10.5625 L 1.78125 0 L 2.46875 0 L 2.46875 -7.9375 L 2.515625 -7.9375 L 10.765625 0.171875 L 10.828125 0.171875 L 10.828125 -10.390625 Z M 10.15625 -10.390625 "/></g></g></g><g fill="#be656e" fill-opacity="1"><g transform="translate(266.205577, 261.560338)"><g><path d="M 1.78125 -10.390625 L 1.78125 0 L 8.484375 0 L 8.484375 -0.8125 L 3.125 -0.8125 L 3.125 -5.171875 L 7.734375 -5.171875 L 7.734375 -5.84375 L 3.125 -5.84375 L 3.125 -9.578125 L 8.484375 -9.578125 L 8.484375 -10.390625 Z M 1.78125 -10.390625 "/></g></g></g><g fill="#be656e" fill-opacity="1"><g transform="translate(276.561924, 261.560338)"><g><path d="M 0.546875 -2.625 C 0.566406 -2.195312 0.675781 -1.8125 0.875 -1.46875 C 1.082031 -1.125 1.359375 -0.828125 1.703125 -0.578125 C 2.054688 -0.335938 2.472656 -0.148438 2.953125 -0.015625 C 3.429688 0.109375 3.953125 0.171875 4.515625 0.171875 C 5.085938 0.171875 5.601562 0.101562 6.0625 -0.03125 C 6.519531 -0.164062 6.910156 -0.363281 7.234375 -0.625 C 7.566406 -0.882812 7.820312 -1.195312 8 -1.5625 C 8.175781 -1.925781 8.265625 -2.332031 8.265625 -2.78125 C 8.265625 -3.394531 8.109375 -3.894531 7.796875 -4.28125 C 7.492188 -4.675781 7.113281 -5.003906 6.65625 -5.265625 C 6.195312 -5.523438 5.695312 -5.742188 5.15625 -5.921875 C 4.613281 -6.097656 4.113281 -6.285156 3.65625 -6.484375 C 3.195312 -6.679688 2.8125 -6.910156 2.5 -7.171875 C 2.195312 -7.429688 2.046875 -7.769531 2.046875 -8.1875 C 2.046875 -8.425781 2.097656 -8.648438 2.203125 -8.859375 C 2.304688 -9.066406 2.457031 -9.25 2.65625 -9.40625 C 2.863281 -9.5625 3.113281 -9.6875 3.40625 -9.78125 C 3.707031 -9.875 4.050781 -9.921875 4.4375 -9.921875 C 5.082031 -9.921875 5.628906 -9.78125 6.078125 -9.5 C 6.523438 -9.226562 6.789062 -8.800781 6.875 -8.21875 L 7.875 -8.21875 C 7.820312 -8.582031 7.691406 -8.910156 7.484375 -9.203125 C 7.273438 -9.492188 7.007812 -9.738281 6.6875 -9.9375 C 6.375 -10.144531 6.015625 -10.300781 5.609375 -10.40625 C 5.210938 -10.507812 4.796875 -10.5625 4.359375 -10.5625 C 3.910156 -10.5625 3.476562 -10.503906 3.0625 -10.390625 C 2.65625 -10.273438 2.296875 -10.101562 1.984375 -9.875 C 1.671875 -9.644531 1.421875 -9.351562 1.234375 -9 C 1.054688 -8.65625 0.96875 -8.265625 0.96875 -7.828125 C 0.96875 -7.242188 1.113281 -6.769531 1.40625 -6.40625 C 1.707031 -6.050781 2.082031 -5.753906 2.53125 -5.515625 C 2.976562 -5.285156 3.460938 -5.082031 3.984375 -4.90625 C 4.515625 -4.738281 5.003906 -4.546875 5.453125 -4.328125 C 5.898438 -4.117188 6.269531 -3.863281 6.5625 -3.5625 C 6.863281 -3.257812 7.015625 -2.847656 7.015625 -2.328125 C 7.015625 -1.679688 6.78125 -1.207031 6.3125 -0.90625 C 5.84375 -0.613281 5.21875 -0.46875 4.4375 -0.46875 C 3.8125 -0.46875 3.3125 -0.550781 2.9375 -0.71875 C 2.5625 -0.882812 2.273438 -1.078125 2.078125 -1.296875 C 1.878906 -1.523438 1.742188 -1.757812 1.671875 -2 C 1.609375 -2.25 1.570312 -2.457031 1.5625 -2.625 Z M 0.546875 -2.625 "/></g></g></g><g fill="#be656e" fill-opacity="1"><g transform="translate(287.259486, 261.560338)"><g><path d="M 0.546875 -2.625 C 0.566406 -2.195312 0.675781 -1.8125 0.875 -1.46875 C 1.082031 -1.125 1.359375 -0.828125 1.703125 -0.578125 C 2.054688 -0.335938 2.472656 -0.148438 2.953125 -0.015625 C 3.429688 0.109375 3.953125 0.171875 4.515625 0.171875 C 5.085938 0.171875 5.601562 0.101562 6.0625 -0.03125 C 6.519531 -0.164062 6.910156 -0.363281 7.234375 -0.625 C 7.566406 -0.882812 7.820312 -1.195312 8 -1.5625 C 8.175781 -1.925781 8.265625 -2.332031 8.265625 -2.78125 C 8.265625 -3.394531 8.109375 -3.894531 7.796875 -4.28125 C 7.492188 -4.675781 7.113281 -5.003906 6.65625 -5.265625 C 6.195312 -5.523438 5.695312 -5.742188 5.15625 -5.921875 C 4.613281 -6.097656 4.113281 -6.285156 3.65625 -6.484375 C 3.195312 -6.679688 2.8125 -6.910156 2.5 -7.171875 C 2.195312 -7.429688 2.046875 -7.769531 2.046875 -8.1875 C 2.046875 -8.425781 2.097656 -8.648438 2.203125 -8.859375 C 2.304688 -9.066406 2.457031 -9.25 2.65625 -9.40625 C 2.863281 -9.5625 3.113281 -9.6875 3.40625 -9.78125 C 3.707031 -9.875 4.050781 -9.921875 4.4375 -9.921875 C 5.082031 -9.921875 5.628906 -9.78125 6.078125 -9.5 C 6.523438 -9.226562 6.789062 -8.800781 6.875 -8.21875 L 7.875 -8.21875 C 7.820312 -8.582031 7.691406 -8.910156 7.484375 -9.203125 C 7.273438 -9.492188 7.007812 -9.738281 6.6875 -9.9375 C 6.375 -10.144531 6.015625 -10.300781 5.609375 -10.40625 C 5.210938 -10.507812 4.796875 -10.5625 4.359375 -10.5625 C 3.910156 -10.5625 3.476562 -10.503906 3.0625 -10.390625 C 2.65625 -10.273438 2.296875 -10.101562 1.984375 -9.875 C 1.671875 -9.644531 1.421875 -9.351562 1.234375 -9 C 1.054688 -8.65625 0.96875 -8.265625 0.96875 -7.828125 C 0.96875 -7.242188 1.113281 -6.769531 1.40625 -6.40625 C 1.707031 -6.050781 2.082031 -5.753906 2.53125 -5.515625 C 2.976562 -5.285156 3.460938 -5.082031 3.984375 -4.90625 C 4.515625 -4.738281 5.003906 -4.546875 5.453125 -4.328125 C 5.898438 -4.117188 6.269531 -3.863281 6.5625 -3.5625 C 6.863281 -3.257812 7.015625 -2.847656 7.015625 -2.328125 C 7.015625 -1.679688 6.78125 -1.207031 6.3125 -0.90625 C 5.84375 -0.613281 5.21875 -0.46875 4.4375 -0.46875 C 3.8125 -0.46875 3.3125 -0.550781 2.9375 -0.71875 C 2.5625 -0.882812 2.273438 -1.078125 2.078125 -1.296875 C 1.878906 -1.523438 1.742188 -1.757812 1.671875 -2 C 1.609375 -2.25 1.570312 -2.457031 1.5625 -2.625 Z M 0.546875 -2.625 "/></g></g></g><g fill="#be656e" fill-opacity="1"><g transform="translate(297.957047, 261.560338)"><g/></g></g><g fill="#be656e" fill-opacity="1"><g transform="translate(304.574778, 261.560338)"><g><path d="M 0.734375 -5.1875 C 0.734375 -4.632812 0.835938 -4.046875 1.046875 -3.421875 C 1.265625 -2.796875 1.601562 -2.210938 2.0625 -1.671875 C 2.519531 -1.140625 3.097656 -0.695312 3.796875 -0.34375 C 4.503906 0 5.347656 0.171875 6.328125 0.171875 C 6.984375 0.171875 7.582031 0.09375 8.125 -0.0625 C 8.664062 -0.226562 9.148438 -0.445312 9.578125 -0.71875 C 10.015625 -1 10.390625 -1.316406 10.703125 -1.671875 C 11.015625 -2.035156 11.269531 -2.414062 11.46875 -2.8125 C 11.675781 -3.21875 11.832031 -3.625 11.9375 -4.03125 C 12.039062 -4.4375 12.09375 -4.820312 12.09375 -5.1875 C 12.09375 -5.75 11.976562 -6.34375 11.75 -6.96875 C 11.53125 -7.59375 11.179688 -8.171875 10.703125 -8.703125 C 10.222656 -9.242188 9.617188 -9.6875 8.890625 -10.03125 C 8.171875 -10.382812 7.316406 -10.5625 6.328125 -10.5625 C 5.347656 -10.5625 4.503906 -10.390625 3.796875 -10.046875 C 3.097656 -9.703125 2.519531 -9.265625 2.0625 -8.734375 C 1.601562 -8.203125 1.265625 -7.617188 1.046875 -6.984375 C 0.835938 -6.359375 0.734375 -5.757812 0.734375 -5.1875 Z M 2.203125 -5.1875 C 2.203125 -5.882812 2.304688 -6.519531 2.515625 -7.09375 C 2.722656 -7.675781 3.015625 -8.175781 3.390625 -8.59375 C 3.765625 -9.007812 4.203125 -9.332031 4.703125 -9.5625 C 5.210938 -9.800781 5.765625 -9.921875 6.359375 -9.921875 C 6.941406 -9.921875 7.488281 -9.800781 8 -9.5625 C 8.519531 -9.332031 8.972656 -9.007812 9.359375 -8.59375 C 9.753906 -8.175781 10.066406 -7.675781 10.296875 -7.09375 C 10.523438 -6.519531 10.640625 -5.882812 10.640625 -5.1875 C 10.640625 -4.5 10.523438 -3.863281 10.296875 -3.28125 C 10.066406 -2.707031 9.753906 -2.210938 9.359375 -1.796875 C 8.972656 -1.378906 8.519531 -1.050781 8 -0.8125 C 7.488281 -0.582031 6.941406 -0.46875 6.359375 -0.46875 C 5.765625 -0.46875 5.210938 -0.582031 4.703125 -0.8125 C 4.203125 -1.050781 3.765625 -1.378906 3.390625 -1.796875 C 3.015625 -2.210938 2.722656 -2.707031 2.515625 -3.28125 C 2.304688 -3.863281 2.203125 -4.5 2.203125 -5.1875 Z M 2.203125 -5.1875 "/></g></g></g><g fill="#be656e" fill-opacity="1"><g transform="translate(318.832907, 261.560338)"><g><path d="M 0.4375 -10.390625 L 4.125 0 L 5.015625 0 L 7.859375 -8.125 L 7.921875 -8.125 L 10.671875 0 L 11.546875 0 L 15.234375 -10.390625 L 14.546875 -10.390625 L 11.46875 -1.71875 L 11.421875 -1.71875 L 8.515625 -10.390625 L 7.875 -10.390625 L 4.921875 -1.765625 L 4.875 -1.765625 L 1.8125 -10.390625 Z M 0.4375 -10.390625 "/></g></g></g><g fill="#be656e" fill-opacity="1"><g transform="translate(335.924685, 261.560338)"><g><path d="M 10.15625 -10.390625 L 10.15625 -2.453125 L 10.09375 -2.453125 L 1.859375 -10.5625 L 1.78125 -10.5625 L 1.78125 0 L 2.46875 0 L 2.46875 -7.9375 L 2.515625 -7.9375 L 10.765625 0.171875 L 10.828125 0.171875 L 10.828125 -10.390625 Z M 10.15625 -10.390625 "/></g></g></g><g fill="#be656e" fill-opacity="1"><g transform="translate(349.960286, 261.560338)"><g><path d="M 1.78125 -10.390625 L 1.78125 0 L 8.484375 0 L 8.484375 -0.8125 L 3.125 -0.8125 L 3.125 -5.171875 L 7.734375 -5.171875 L 7.734375 -5.84375 L 3.125 -5.84375 L 3.125 -9.578125 L 8.484375 -9.578125 L 8.484375 -10.390625 Z M 1.78125 -10.390625 "/></g></g></g><g fill="#be656e" fill-opacity="1"><g transform="translate(360.316634, 261.560338)"><g><path d="M 1.78125 -10.390625 L 1.78125 0 L 3.125 0 L 3.125 -4.59375 L 3.78125 -4.59375 C 4.0625 -4.59375 4.289062 -4.566406 4.46875 -4.515625 C 4.65625 -4.460938 4.820312 -4.375 4.96875 -4.25 C 5.113281 -4.132812 5.25 -3.984375 5.375 -3.796875 C 5.507812 -3.609375 5.664062 -3.378906 5.84375 -3.109375 L 7.015625 -1.359375 C 7.171875 -1.140625 7.316406 -0.929688 7.453125 -0.734375 C 7.597656 -0.546875 7.753906 -0.382812 7.921875 -0.25 C 8.085938 -0.125 8.273438 -0.0234375 8.484375 0.046875 C 8.703125 0.128906 8.960938 0.171875 9.265625 0.171875 C 9.484375 0.171875 9.660156 0.160156 9.796875 0.140625 C 9.929688 0.128906 10.070312 0.0820312 10.21875 0 L 10.21875 -0.546875 C 10.164062 -0.535156 10.113281 -0.523438 10.0625 -0.515625 C 10.007812 -0.515625 9.960938 -0.515625 9.921875 -0.515625 C 9.710938 -0.515625 9.523438 -0.546875 9.359375 -0.609375 C 9.203125 -0.671875 9.054688 -0.753906 8.921875 -0.859375 C 8.785156 -0.972656 8.648438 -1.113281 8.515625 -1.28125 C 8.390625 -1.445312 8.257812 -1.632812 8.125 -1.84375 C 7.707031 -2.445312 7.382812 -2.925781 7.15625 -3.28125 C 6.925781 -3.644531 6.742188 -3.925781 6.609375 -4.125 C 6.472656 -4.320312 6.363281 -4.460938 6.28125 -4.546875 C 6.195312 -4.640625 6.097656 -4.71875 5.984375 -4.78125 L 5.828125 -4.859375 L 5.828125 -4.90625 C 6.304688 -4.9375 6.710938 -5.039062 7.046875 -5.21875 C 7.390625 -5.394531 7.671875 -5.617188 7.890625 -5.890625 C 8.109375 -6.160156 8.265625 -6.453125 8.359375 -6.765625 C 8.460938 -7.078125 8.515625 -7.378906 8.515625 -7.671875 C 8.515625 -7.941406 8.460938 -8.234375 8.359375 -8.546875 C 8.253906 -8.867188 8.078125 -9.164062 7.828125 -9.4375 C 7.578125 -9.707031 7.234375 -9.929688 6.796875 -10.109375 C 6.359375 -10.296875 5.8125 -10.390625 5.15625 -10.390625 Z M 3.125 -9.734375 L 4.625 -9.734375 C 5 -9.734375 5.335938 -9.675781 5.640625 -9.5625 C 5.941406 -9.457031 6.203125 -9.304688 6.421875 -9.109375 C 6.640625 -8.921875 6.804688 -8.691406 6.921875 -8.421875 C 7.035156 -8.160156 7.09375 -7.875 7.09375 -7.5625 C 7.09375 -7.289062 7.039062 -7.019531 6.9375 -6.75 C 6.832031 -6.476562 6.675781 -6.226562 6.46875 -6 C 6.257812 -5.78125 6.003906 -5.597656 5.703125 -5.453125 C 5.398438 -5.316406 5.050781 -5.25 4.65625 -5.25 L 3.125 -5.25 Z M 3.125 -9.734375 "/></g></g></g><g fill="#be656e" fill-opacity="1"><g transform="translate(43.792396, 235.146678)"><g><path d="M 1.265625 0 L 1.265625 -7.0625 L 1.484375 -7.0625 L 1.484375 -6.484375 C 1.484375 -5.691406 1.679688 -4.914062 2.078125 -4.15625 C 2.472656 -3.394531 3.003906 -2.707031 3.671875 -2.09375 C 4.347656 -1.488281 5.109375 -1.003906 5.953125 -0.640625 C 6.804688 -0.273438 7.679688 -0.09375 8.578125 -0.09375 C 9.785156 -0.09375 10.742188 -0.25 11.453125 -0.5625 C 12.171875 -0.875 12.695312 -1.289062 13.03125 -1.8125 C 13.375 -2.34375 13.550781 -2.914062 13.5625 -3.53125 C 13.582031 -4.082031 13.421875 -4.59375 13.078125 -5.0625 C 12.734375 -5.53125 12.269531 -5.972656 11.6875 -6.390625 C 11.101562 -6.816406 10.457031 -7.222656 9.75 -7.609375 C 9.050781 -7.992188 8.359375 -8.378906 7.671875 -8.765625 C 6.992188 -9.148438 6.382812 -9.539062 5.84375 -9.9375 C 4.613281 -10.863281 3.660156 -11.703125 2.984375 -12.453125 C 2.304688 -13.210938 1.90625 -13.96875 1.78125 -14.71875 C 1.664062 -15.476562 1.8125 -16.328125 2.21875 -17.265625 C 2.59375 -18.117188 3.140625 -18.859375 3.859375 -19.484375 C 4.578125 -20.109375 5.394531 -20.585938 6.3125 -20.921875 C 7.238281 -21.265625 8.191406 -21.4375 9.171875 -21.4375 C 9.617188 -21.4375 10.054688 -21.398438 10.484375 -21.328125 C 10.910156 -21.253906 11.3125 -21.128906 11.6875 -20.953125 C 11.90625 -20.847656 12.171875 -20.726562 12.484375 -20.59375 C 12.796875 -20.46875 13.109375 -20.367188 13.421875 -20.296875 C 13.734375 -20.222656 14 -20.207031 14.21875 -20.25 C 14.445312 -20.289062 14.566406 -20.425781 14.578125 -20.65625 L 14.578125 -20.75 L 14.796875 -20.75 L 14.796875 -14.90625 L 14.578125 -14.90625 C 14.578125 -14.90625 14.5625 -15.046875 14.53125 -15.328125 C 14.507812 -15.617188 14.460938 -15.984375 14.390625 -16.421875 C 14.316406 -16.867188 14.191406 -17.347656 14.015625 -17.859375 C 13.847656 -18.367188 13.617188 -18.851562 13.328125 -19.3125 C 13.046875 -19.78125 12.679688 -20.148438 12.234375 -20.421875 C 11.804688 -20.671875 11.332031 -20.863281 10.8125 -21 C 10.300781 -21.144531 9.753906 -21.21875 9.171875 -21.21875 C 8.222656 -21.21875 7.46875 -21.070312 6.90625 -20.78125 C 6.34375 -20.5 5.945312 -20.109375 5.71875 -19.609375 C 5.488281 -19.117188 5.375 -18.5625 5.375 -17.9375 C 5.375 -17.09375 5.660156 -16.347656 6.234375 -15.703125 C 6.816406 -15.054688 7.695312 -14.367188 8.875 -13.640625 C 9.894531 -13.015625 10.859375 -12.460938 11.765625 -11.984375 C 12.671875 -11.515625 13.46875 -11.023438 14.15625 -10.515625 C 14.851562 -10.003906 15.398438 -9.394531 15.796875 -8.6875 C 16.203125 -7.976562 16.40625 -7.082031 16.40625 -6 C 16.40625 -5.289062 16.238281 -4.535156 15.90625 -3.734375 C 15.582031 -2.941406 15.175781 -2.296875 14.6875 -1.796875 C 14.15625 -1.273438 13.503906 -0.859375 12.734375 -0.546875 C 11.960938 -0.242188 11.125 -0.0507812 10.21875 0.03125 C 9.320312 0.125 8.425781 0.117188 7.53125 0.015625 C 6.632812 -0.0859375 5.796875 -0.289062 5.015625 -0.59375 C 4.171875 -0.914062 3.507812 -1.117188 3.03125 -1.203125 C 2.550781 -1.285156 2.203125 -1.28125 1.984375 -1.1875 C 1.765625 -1.101562 1.625 -0.957031 1.5625 -0.75 C 1.507812 -0.539062 1.484375 -0.300781 1.484375 -0.03125 L 1.484375 0 Z M 1.265625 0 "/></g></g></g><g fill="#be656e" fill-opacity="1"><g transform="translate(74.768046, 235.146678)"><g><path d="M 1.234375 -0.21875 C 2.140625 -0.21875 2.847656 -0.453125 3.359375 -0.921875 C 3.878906 -1.390625 4.140625 -2.03125 4.140625 -2.84375 L 4.140625 -18.4375 C 4.140625 -19.25 3.878906 -19.882812 3.359375 -20.34375 C 2.847656 -20.8125 2.140625 -21.046875 1.234375 -21.046875 L 1.234375 -21.265625 L 12.15625 -21.265625 L 12.15625 -21.046875 C 11.257812 -21.046875 10.550781 -20.8125 10.03125 -20.34375 C 9.507812 -19.882812 9.25 -19.25 9.25 -18.4375 L 9.25 -10.21875 L 17.6875 -10.21875 L 17.6875 -18.4375 C 17.6875 -19.25 17.425781 -19.882812 16.90625 -20.34375 C 16.394531 -20.8125 15.6875 -21.046875 14.78125 -21.046875 L 14.78125 -21.265625 L 25.703125 -21.265625 L 25.703125 -21.046875 C 24.796875 -21.046875 24.082031 -20.8125 23.5625 -20.34375 C 23.050781 -19.882812 22.796875 -19.25 22.796875 -18.4375 L 22.796875 -2.84375 C 22.796875 -2.03125 23.050781 -1.390625 23.5625 -0.921875 C 24.082031 -0.453125 24.796875 -0.21875 25.703125 -0.21875 L 25.703125 0 L 14.78125 0 L 14.78125 -0.21875 C 15.6875 -0.21875 16.394531 -0.453125 16.90625 -0.921875 C 17.425781 -1.390625 17.6875 -2.03125 17.6875 -2.84375 L 17.6875 -9.984375 L 9.25 -9.984375 L 9.25 -2.84375 C 9.25 -2.03125 9.507812 -1.390625 10.03125 -0.921875 C 10.550781 -0.453125 11.257812 -0.21875 12.15625 -0.21875 L 12.15625 0 L 1.234375 0 Z M 1.234375 -0.21875 "/></g></g></g><g fill="#be656e" fill-opacity="1"><g transform="translate(115.532239, 235.146678)"><g><path d="M 12.046875 0.25 C 10.546875 0.25 9.140625 -0.0390625 7.828125 -0.625 C 6.523438 -1.207031 5.378906 -2.003906 4.390625 -3.015625 C 3.398438 -4.035156 2.625 -5.203125 2.0625 -6.515625 C 1.507812 -7.828125 1.234375 -9.21875 1.234375 -10.6875 C 1.234375 -12.195312 1.507812 -13.613281 2.0625 -14.9375 C 2.625 -16.257812 3.398438 -17.421875 4.390625 -18.421875 C 5.390625 -19.429688 6.539062 -20.210938 7.84375 -20.765625 C 9.15625 -21.328125 10.554688 -21.609375 12.046875 -21.609375 C 13.523438 -21.609375 14.914062 -21.328125 16.21875 -20.765625 C 17.53125 -20.210938 18.679688 -19.429688 19.671875 -18.421875 C 20.671875 -17.421875 21.445312 -16.257812 22 -14.9375 C 22.5625 -13.613281 22.84375 -12.195312 22.84375 -10.6875 C 22.84375 -9.1875 22.5625 -7.773438 22 -6.453125 C 21.445312 -5.140625 20.675781 -3.984375 19.6875 -2.984375 C 18.695312 -1.984375 17.546875 -1.191406 16.234375 -0.609375 C 14.929688 -0.0351562 13.535156 0.25 12.046875 0.25 Z M 12.046875 -0.046875 C 12.359375 -0.046875 12.75 -0.109375 13.21875 -0.234375 C 13.695312 -0.359375 14.203125 -0.613281 14.734375 -1 C 15.273438 -1.382812 15.773438 -1.960938 16.234375 -2.734375 C 16.691406 -3.503906 17.066406 -4.535156 17.359375 -5.828125 C 17.660156 -7.117188 17.8125 -8.738281 17.8125 -10.6875 C 17.8125 -12.601562 17.660156 -14.203125 17.359375 -15.484375 C 17.066406 -16.773438 16.691406 -17.8125 16.234375 -18.59375 C 15.773438 -19.375 15.273438 -19.957031 14.734375 -20.34375 C 14.203125 -20.726562 13.695312 -20.984375 13.21875 -21.109375 C 12.75 -21.242188 12.359375 -21.3125 12.046875 -21.3125 C 11.734375 -21.3125 11.335938 -21.242188 10.859375 -21.109375 C 10.378906 -20.984375 9.875 -20.726562 9.34375 -20.34375 C 8.820312 -19.957031 8.328125 -19.375 7.859375 -18.59375 C 7.390625 -17.8125 7.003906 -16.773438 6.703125 -15.484375 C 6.410156 -14.203125 6.265625 -12.601562 6.265625 -10.6875 C 6.265625 -8.738281 6.410156 -7.117188 6.703125 -5.828125 C 7.003906 -4.535156 7.390625 -3.503906 7.859375 -2.734375 C 8.328125 -1.960938 8.820312 -1.382812 9.34375 -1 C 9.875 -0.613281 10.378906 -0.359375 10.859375 -0.234375 C 11.335938 -0.109375 11.734375 -0.046875 12.046875 -0.046875 Z M 12.046875 -0.046875 "/></g></g></g><g fill="#be656e" fill-opacity="1"><g transform="translate(153.436299, 235.146678)"><g><path d="M 1.265625 -0.21875 C 2.160156 -0.238281 2.863281 -0.476562 3.375 -0.9375 C 3.882812 -1.394531 4.140625 -2.03125 4.140625 -2.84375 L 4.140625 -18.4375 C 4.140625 -19.007812 4.039062 -19.460938 3.84375 -19.796875 C 3.644531 -20.140625 3.398438 -20.398438 3.109375 -20.578125 C 2.828125 -20.753906 2.535156 -20.875 2.234375 -20.9375 C 1.941406 -21.007812 1.707031 -21.046875 1.53125 -21.046875 L 1.234375 -21.046875 L 1.234375 -21.265625 L 11.921875 -21.265625 C 12.921875 -21.265625 13.878906 -21.164062 14.796875 -20.96875 C 15.722656 -20.769531 16.550781 -20.453125 17.28125 -20.015625 C 18.007812 -19.585938 18.585938 -19.019531 19.015625 -18.3125 C 19.441406 -17.613281 19.65625 -16.773438 19.65625 -15.796875 C 19.65625 -14.984375 19.445312 -14.234375 19.03125 -13.546875 C 18.613281 -12.859375 18.066406 -12.257812 17.390625 -11.75 C 16.710938 -11.25 15.972656 -10.859375 15.171875 -10.578125 C 14.367188 -10.304688 13.578125 -10.171875 12.796875 -10.171875 L 9.25 -10.171875 L 9.25 -2.84375 C 9.25 -2.03125 9.507812 -1.394531 10.03125 -0.9375 C 10.550781 -0.476562 11.257812 -0.238281 12.15625 -0.21875 L 12.15625 0 L 1.234375 0 Z M 11.921875 -10.40625 C 12.503906 -10.40625 13 -10.644531 13.40625 -11.125 C 13.8125 -11.601562 14.113281 -12.25 14.3125 -13.0625 C 14.519531 -13.875 14.625 -14.785156 14.625 -15.796875 C 14.625 -16.796875 14.519531 -17.6875 14.3125 -18.46875 C 14.113281 -19.257812 13.8125 -19.882812 13.40625 -20.34375 C 13 -20.8125 12.503906 -21.046875 11.921875 -21.046875 L 9.25 -21.046875 L 9.25 -10.40625 Z M 11.921875 -10.40625 "/></g></g></g><g fill="#be656e" fill-opacity="1"><g transform="translate(188.159708, 235.146678)"><g/></g></g><g fill="#be656e" fill-opacity="1"><g transform="translate(216.793007, 235.146678)"><g><path d="M 1.234375 -0.21875 C 2.140625 -0.21875 2.847656 -0.453125 3.359375 -0.921875 C 3.878906 -1.390625 4.140625 -2.03125 4.140625 -2.84375 L 4.140625 -18.4375 C 4.140625 -19.25 3.878906 -19.882812 3.359375 -20.34375 C 2.847656 -20.8125 2.140625 -21.046875 1.234375 -21.046875 L 1.234375 -21.265625 L 17.984375 -21.265625 L 18.828125 -15.796875 L 18.625 -15.6875 L 18.546875 -16.140625 C 18.503906 -16.378906 18.40625 -16.703125 18.25 -17.109375 C 18.09375 -17.523438 17.847656 -17.957031 17.515625 -18.40625 C 17.191406 -18.851562 16.753906 -19.273438 16.203125 -19.671875 C 15.648438 -20.078125 14.953125 -20.40625 14.109375 -20.65625 C 13.273438 -20.914062 12.253906 -21.046875 11.046875 -21.046875 L 9.28125 -21.046875 L 9.25 -11.28125 L 12.953125 -11.28125 C 13.523438 -11.289062 13.972656 -11.398438 14.296875 -11.609375 C 14.628906 -11.828125 14.878906 -12.09375 15.046875 -12.40625 C 15.210938 -12.71875 15.316406 -13.015625 15.359375 -13.296875 C 15.410156 -13.578125 15.4375 -13.789062 15.4375 -13.9375 L 15.4375 -14.0625 L 15.671875 -14.0625 L 15.671875 -8.234375 L 15.4375 -8.234375 L 15.4375 -8.359375 C 15.4375 -8.503906 15.410156 -8.71875 15.359375 -9 C 15.316406 -9.28125 15.210938 -9.578125 15.046875 -9.890625 C 14.878906 -10.203125 14.628906 -10.46875 14.296875 -10.6875 C 13.972656 -10.914062 13.523438 -11.035156 12.953125 -11.046875 L 9.25 -11.046875 L 9.25 -2.84375 C 9.25 -2.03125 9.507812 -1.390625 10.03125 -0.921875 C 10.550781 -0.453125 11.257812 -0.21875 12.15625 -0.21875 C 14.28125 -0.21875 16.050781 -0.660156 17.46875 -1.546875 C 18.894531 -2.441406 19.90625 -3.785156 20.5 -5.578125 L 20.71875 -5.578125 L 19.09375 0 L 1.234375 0 Z M 1.234375 -0.21875 "/></g></g></g><g fill="#be656e" fill-opacity="1"><g transform="translate(252.576631, 235.146678)"><g><path d="M 1.234375 -0.21875 L 1.65625 -0.21875 C 1.9375 -0.25 2.316406 -0.375 2.796875 -0.59375 C 3.285156 -0.820312 3.816406 -1.242188 4.390625 -1.859375 C 4.960938 -2.472656 5.519531 -3.390625 6.0625 -4.609375 L 11.109375 -15.640625 L 13.640625 -21.265625 L 22.0625 -2.8125 C 22.414062 -2.039062 22.832031 -1.46875 23.3125 -1.09375 C 23.789062 -0.726562 24.234375 -0.492188 24.640625 -0.390625 C 25.054688 -0.296875 25.347656 -0.238281 25.515625 -0.21875 L 25.640625 -0.21875 L 25.640625 0 L 15.625 0 L 15.625 -0.21875 L 15.734375 -0.21875 C 15.867188 -0.21875 16.050781 -0.242188 16.28125 -0.296875 C 16.507812 -0.359375 16.726562 -0.472656 16.9375 -0.640625 C 17.144531 -0.804688 17.269531 -1.0625 17.3125 -1.40625 C 17.351562 -1.75 17.234375 -2.21875 16.953125 -2.8125 L 15.328125 -6.390625 L 7.125 -6.390625 L 6.3125 -4.609375 C 5.9375 -3.785156 5.703125 -3.109375 5.609375 -2.578125 C 5.523438 -2.046875 5.523438 -1.617188 5.609375 -1.296875 C 5.703125 -0.972656 5.84375 -0.738281 6.03125 -0.59375 C 6.21875 -0.445312 6.398438 -0.347656 6.578125 -0.296875 C 6.765625 -0.242188 6.898438 -0.21875 6.984375 -0.21875 L 7.0625 -0.21875 L 7.0625 0 L 1.234375 0 Z M 15.21875 -6.609375 L 11.21875 -15.375 L 7.234375 -6.609375 Z M 15.21875 -6.609375 "/></g></g></g><g fill="#be656e" fill-opacity="1"><g transform="translate(293.266852, 235.146678)"><g><path d="M 1.265625 0 L 1.265625 -7.0625 L 1.484375 -7.0625 L 1.484375 -6.484375 C 1.484375 -5.691406 1.679688 -4.914062 2.078125 -4.15625 C 2.472656 -3.394531 3.003906 -2.707031 3.671875 -2.09375 C 4.347656 -1.488281 5.109375 -1.003906 5.953125 -0.640625 C 6.804688 -0.273438 7.679688 -0.09375 8.578125 -0.09375 C 9.785156 -0.09375 10.742188 -0.25 11.453125 -0.5625 C 12.171875 -0.875 12.695312 -1.289062 13.03125 -1.8125 C 13.375 -2.34375 13.550781 -2.914062 13.5625 -3.53125 C 13.582031 -4.082031 13.421875 -4.59375 13.078125 -5.0625 C 12.734375 -5.53125 12.269531 -5.972656 11.6875 -6.390625 C 11.101562 -6.816406 10.457031 -7.222656 9.75 -7.609375 C 9.050781 -7.992188 8.359375 -8.378906 7.671875 -8.765625 C 6.992188 -9.148438 6.382812 -9.539062 5.84375 -9.9375 C 4.613281 -10.863281 3.660156 -11.703125 2.984375 -12.453125 C 2.304688 -13.210938 1.90625 -13.96875 1.78125 -14.71875 C 1.664062 -15.476562 1.8125 -16.328125 2.21875 -17.265625 C 2.59375 -18.117188 3.140625 -18.859375 3.859375 -19.484375 C 4.578125 -20.109375 5.394531 -20.585938 6.3125 -20.921875 C 7.238281 -21.265625 8.191406 -21.4375 9.171875 -21.4375 C 9.617188 -21.4375 10.054688 -21.398438 10.484375 -21.328125 C 10.910156 -21.253906 11.3125 -21.128906 11.6875 -20.953125 C 11.90625 -20.847656 12.171875 -20.726562 12.484375 -20.59375 C 12.796875 -20.46875 13.109375 -20.367188 13.421875 -20.296875 C 13.734375 -20.222656 14 -20.207031 14.21875 -20.25 C 14.445312 -20.289062 14.566406 -20.425781 14.578125 -20.65625 L 14.578125 -20.75 L 14.796875 -20.75 L 14.796875 -14.90625 L 14.578125 -14.90625 C 14.578125 -14.90625 14.5625 -15.046875 14.53125 -15.328125 C 14.507812 -15.617188 14.460938 -15.984375 14.390625 -16.421875 C 14.316406 -16.867188 14.191406 -17.347656 14.015625 -17.859375 C 13.847656 -18.367188 13.617188 -18.851562 13.328125 -19.3125 C 13.046875 -19.78125 12.679688 -20.148438 12.234375 -20.421875 C 11.804688 -20.671875 11.332031 -20.863281 10.8125 -21 C 10.300781 -21.144531 9.753906 -21.21875 9.171875 -21.21875 C 8.222656 -21.21875 7.46875 -21.070312 6.90625 -20.78125 C 6.34375 -20.5 5.945312 -20.109375 5.71875 -19.609375 C 5.488281 -19.117188 5.375 -18.5625 5.375 -17.9375 C 5.375 -17.09375 5.660156 -16.347656 6.234375 -15.703125 C 6.816406 -15.054688 7.695312 -14.367188 8.875 -13.640625 C 9.894531 -13.015625 10.859375 -12.460938 11.765625 -11.984375 C 12.671875 -11.515625 13.46875 -11.023438 14.15625 -10.515625 C 14.851562 -10.003906 15.398438 -9.394531 15.796875 -8.6875 C 16.203125 -7.976562 16.40625 -7.082031 16.40625 -6 C 16.40625 -5.289062 16.238281 -4.535156 15.90625 -3.734375 C 15.582031 -2.941406 15.175781 -2.296875 14.6875 -1.796875 C 14.15625 -1.273438 13.503906 -0.859375 12.734375 -0.546875 C 11.960938 -0.242188 11.125 -0.0507812 10.21875 0.03125 C 9.320312 0.125 8.425781 0.117188 7.53125 0.015625 C 6.632812 -0.0859375 5.796875 -0.289062 5.015625 -0.59375 C 4.171875 -0.914062 3.507812 -1.117188 3.03125 -1.203125 C 2.550781 -1.285156 2.203125 -1.28125 1.984375 -1.1875 C 1.765625 -1.101562 1.625 -0.957031 1.5625 -0.75 C 1.507812 -0.539062 1.484375 -0.300781 1.484375 -0.03125 L 1.484375 0 Z M 1.265625 0 "/></g></g></g><g fill="#be656e" fill-opacity="1"><g transform="translate(324.242505, 235.146678)"><g><path d="M 1.234375 -0.21875 C 2.140625 -0.21875 2.847656 -0.453125 3.359375 -0.921875 C 3.878906 -1.390625 4.140625 -2.03125 4.140625 -2.84375 L 4.140625 -18.4375 C 4.140625 -19.25 3.878906 -19.882812 3.359375 -20.34375 C 2.847656 -20.8125 2.140625 -21.046875 1.234375 -21.046875 L 1.234375 -21.265625 L 17.984375 -21.265625 L 18.828125 -15.796875 L 18.625 -15.6875 L 18.546875 -16.140625 C 18.503906 -16.378906 18.40625 -16.703125 18.25 -17.109375 C 18.09375 -17.523438 17.847656 -17.957031 17.515625 -18.40625 C 17.191406 -18.851562 16.753906 -19.273438 16.203125 -19.671875 C 15.648438 -20.078125 14.953125 -20.40625 14.109375 -20.65625 C 13.273438 -20.914062 12.253906 -21.046875 11.046875 -21.046875 L 9.28125 -21.046875 L 9.25 -11.28125 L 12.953125 -11.28125 C 13.523438 -11.289062 13.972656 -11.398438 14.296875 -11.609375 C 14.628906 -11.828125 14.878906 -12.09375 15.046875 -12.40625 C 15.210938 -12.71875 15.316406 -13.015625 15.359375 -13.296875 C 15.410156 -13.578125 15.4375 -13.789062 15.4375 -13.9375 L 15.4375 -14.0625 L 15.671875 -14.0625 L 15.671875 -8.234375 L 15.4375 -8.234375 L 15.4375 -8.359375 C 15.4375 -8.503906 15.410156 -8.71875 15.359375 -9 C 15.316406 -9.28125 15.210938 -9.578125 15.046875 -9.890625 C 14.878906 -10.203125 14.628906 -10.46875 14.296875 -10.6875 C 13.972656 -10.914062 13.523438 -11.035156 12.953125 -11.046875 L 9.25 -11.046875 L 9.25 -2.84375 C 9.25 -2.03125 9.507812 -1.390625 10.03125 -0.921875 C 10.550781 -0.453125 11.257812 -0.21875 12.15625 -0.21875 C 14.28125 -0.21875 16.050781 -0.660156 17.46875 -1.546875 C 18.894531 -2.441406 19.90625 -3.785156 20.5 -5.578125 L 20.71875 -5.578125 L 19.09375 0 L 1.234375 0 Z M 1.234375 -0.21875 "/></g></g></g></svg>